<?xml version="1.0" encoding="utf-8"?>
<!-- Generator: Adobe Illustrator 19.2.1, SVG Export Plug-In . SVG Version: 6.00 Build 0)  -->
<svg version="1.1" id="Layer_1" xmlns="http://www.w3.org/2000/svg" xmlns:xlink="http://www.w3.org/1999/xlink" x="0px" y="0px"
	 viewBox="0 0 468 468" style="enable-background:new 0 0 468 468;" xml:space="preserve">
<style type="text/css">
	.st0{fill:#333333;}
</style>
<title>2018 D3 Logo Marks</title>
<g>
	<path class="st0" d="M247.8,179c-4,0-7.3-3.3-7.3-7.3c0-4,3.3-7.3,7.3-7.3s7.3,3.3,7.3,7.3l0,0C255.1,175.7,251.8,179,247.8,179z"
		/>
	<path class="st0" d="M195.5,229.2c-4,0-7.3-3.3-7.3-7.3s3.3-7.3,7.3-7.3c4,0,7.3,3.3,7.3,7.3l0,0
		C202.8,225.9,199.5,229.2,195.5,229.2z"/>
	<path class="st0" d="M125.4,205.9c-4,0-7.3-3.3-7.3-7.3c0-4,3.3-7.3,7.3-7.3s7.3,3.3,7.3,7.3l0,0
		C132.7,202.6,129.4,205.8,125.4,205.9z"/>
	<path class="st0" d="M103,303.9c-4,0-7.3-3.3-7.3-7.3c0-4,3.3-7.3,7.3-7.3c4,0,7.3,3.3,7.3,7.3l0,0
		C110.4,300.6,107.1,303.9,103,303.9z"/>
	<polygon class="st0" points="48.9,432.1 384.6,431.2 384.6,420.5 48.9,421.4 	"/>
	<polygon class="st0" points="48,138.7 49,431.2 59.7,431.2 58.7,138.7 	"/>
	<polygon class="st0" points="157.6,427.8 147.3,427.8 147.3,148.9 84,148.9 84,423.8 73.7,423.8 73.7,138.7 157.6,138.7 	"/>
	<polygon class="st0" points="257.1,425.9 246.7,425.9 246.7,280.1 183.4,280.1 183.4,425.2 173,425.2 173,269.7 257.1,269.7 	"/>
	<polygon class="st0" points="356.7,427.9 346.5,427.9 346.5,77.4 283,77.4 283,426.6 272.8,426.6 272.8,67.2 356.7,67.2 	"/>
	<path class="st0" d="M305,281c-4,0-7.3-3.3-7.3-7.3s3.3-7.3,7.3-7.3c4,0,7.3,3.3,7.3,7.3C312.4,277.7,309.1,281,305,281z"/>
	<circle class="st0" cx="125.4" cy="198.5" r="2.4"/>
	<polygon class="st0" points="56.6,320.3 50.1,314.1 182.9,173.3 315.1,241.6 402.1,57.1 410.2,60.9 319.2,253.7 184.8,184.3 	"/>
	<polygon class="st0" points="420,71.3 417.1,35.9 387.8,56.1 	"/>
</g>
</svg>
