<?xml version="1.0" encoding="utf-8"?>
<!-- Generator: Adobe Illustrator 19.2.1, SVG Export Plug-In . SVG Version: 6.00 Build 0)  -->
<svg version="1.1" id="Layer_1" xmlns="http://www.w3.org/2000/svg" xmlns:xlink="http://www.w3.org/1999/xlink" x="0px" y="0px"
	 viewBox="0 0 468 468" style="enable-background:new 0 0 468 468;" xml:space="preserve">
<style type="text/css">
	.st0{fill:#333333;}
</style>
<title>2018 D3 Logo Marks</title>
<g>
	<path class="st0" d="M225.3,425.4C119.6,424.5,34.7,338,35.6,232.3c0.9-104.4,85.3-188.8,189.7-189.7c100.8,0,182.7,76,190.6,176.8
		l-9.3,0.8C399.1,124.2,321.2,52,225.3,52c-100.5,0-182,81.5-182,182s81.5,182,182,182c95.2,0,175-74.3,181.6-169.2l9.3,0.7
		C409.3,347.2,325.4,425.4,225.3,425.4z"/>
	<path class="st0" d="M227.4,423.3L227.4,423.3c-8.9,0-17.5-3.8-23.4-10.5c-9.5-10.6-19.3-25.2-28.4-42.2c-0.9-1.7-1.8-3.5-2.8-5.3
		c-2.9-5.6-5.6-11.3-8.1-17l4.8-2.1c2.5,5.6,5.2,11.3,8,16.8c0.9,1.8,1.8,3.5,2.7,5.2c8.9,16.6,18.5,30.9,27.7,41.2
		c5,5.5,12.1,8.7,19.5,8.7l0,0c7.4,0,14.5-3.1,19.5-8.7c21.5-24,58.5-74.8,65-144.5l5.2,0.5c-6.6,71.2-44.4,123-66.3,147.6
		C244.8,419.5,236.3,423.3,227.4,423.3z"/>
	<path class="st0" d="M137.7,208.3c-0.8-36.8,10.8-93.2,70.4-153.3c10.6-10.7,27.8-10.7,38.5-0.2c0.1,0.1,0.1,0.1,0.2,0.2
		c11.3,11.4,23.2,27.6,33.5,45.5c1.5,2.5,2.9,5.1,4.3,7.8c1,1.8,1.9,3.6,2.8,5.4c1.1,2.2,5,10.2,6,12.4l-4.7,2.2
		c-1-2.2-4.9-10.2-6-12.3c-0.9-1.8-1.8-3.6-2.8-5.3c-1.4-2.6-2.8-5.2-4.2-7.6c-10.1-17.5-21.7-33.3-32.7-44.4
		c-8.7-8.4-22.5-8.4-31.2,0c-58.3,58.7-69.6,113.7-68.9,149.4L137.7,208.3z"/>
	<rect x="67.6" y="331.1" class="st0" width="81.4" height="5.2"/>
	<rect x="172.8" y="331.1" class="st0" width="213.7" height="5.2"/>
	<rect x="37.8" y="233.5" class="st0" width="74.9" height="5.2"/>
	<rect x="341.5" y="233.3" class="st0" width="62.2" height="5.2"/>
	<rect x="68.3" y="135.6" class="st0" width="215.3" height="5.2"/>
	<rect x="312.7" y="135.6" class="st0" width="73.8" height="5.2"/>
	<path class="st0" d="M299.2,156.5c-10.1,0-18.3-8.2-18.3-18.3c0-10.1,8.2-18.3,18.3-18.3c10.1,0,18.3,8.2,18.3,18.3l0,0
		C317.4,148.3,309.2,156.5,299.2,156.5z M299.2,129.3c-4.9,0-8.9,4-8.9,8.9c0,4.9,4,8.9,8.9,8.9c4.9,0,8.9-4,8.9-8.9v0
		C308,133.3,304.1,129.3,299.2,129.3z"/>
	<path class="st0" d="M153,320.8c-1.8-6.8-3.7-13.5-5.6-20.3c-5.7-20.3-11.6-41.2-14-63l-0.6-5.8l177.9-0.9
		c-0.1-13.3-1.4-26.6-3.8-39.7l10.3-1.9c2.8,15.5,4.2,31.2,3.9,47l-0.1,5.1l-176.5,0.9c2.6,18.8,7.6,36.7,12.9,55.5
		c1.9,6.8,3.8,13.6,5.6,20.5L153,320.8z"/>
	<polygon class="st0" points="328.2,191 306.5,168.3 297.7,198.5 	"/>
	<rect x="130.1" y="204" class="st0" width="19.2" height="6.3"/>
	<rect x="304.8" y="261.9" class="st0" width="19.2" height="6.3"/>
	<path class="st0" d="M163.2,350.3c-10.1,0-18.3-8.2-18.3-18.3s8.2-18.3,18.3-18.3s18.3,8.2,18.3,18.3
		C181.5,342.1,173.3,350.3,163.2,350.3z M163.2,323.1c-4.9,0-8.9,4-8.9,8.9s4,8.9,8.9,8.9c4.9,0,8.9-4,8.9-8.9v0
		C172.1,327.1,168.1,323.1,163.2,323.1z"/>
	<path class="st0" d="M414.1,254.2c-10.1,0-18.3-8.2-18.3-18.3c0-10.1,8.2-18.3,18.3-18.3c10.1,0,18.3,8.2,18.3,18.3v0
		C432.4,246,424.2,254.2,414.1,254.2z M414.1,227c-4.9,0-8.9,4-8.9,8.9c0,4.9,4,8.9,8.9,8.9c4.9,0,8.9-4,8.9-8.9v0
		C423,231,419,227.1,414.1,227z"/>
</g>
</svg>
