<?xml version="1.0" encoding="utf-8"?>
<!-- Generator: Adobe Illustrator 19.2.1, SVG Export Plug-In . SVG Version: 6.00 Build 0)  -->
<svg version="1.1" id="Layer_1" xmlns="http://www.w3.org/2000/svg" xmlns:xlink="http://www.w3.org/1999/xlink" x="0px" y="0px"
	 viewBox="0 0 469.4 468" style="enable-background:new 0 0 469.4 468;" xml:space="preserve">
<style type="text/css">
	.st0{fill:#333333;}
</style>
<title>2018 D3 Logo Marks</title>
<g>
	<path class="st0" d="M333.8,416.4c-4,0-7.3-3.2-7.3-7.3s3.2-7.3,7.3-7.3s7.3,3.2,7.3,7.3C341,413.1,337.8,416.4,333.8,416.4z"/>
	<path class="st0" d="M237.8,271.4c-4.1,0-7.4-3.3-7.4-7.4c0-4.1,3.3-7.4,7.4-7.4c4.1,0,7.4,3.3,7.4,7.4
		C245.3,268,242,271.4,237.8,271.4C237.9,271.4,237.9,271.4,237.8,271.4z"/>
	<path class="st0" d="M189.8,271.1c-4.1,0-7.4-3.3-7.4-7.4c0-4.1,3.3-7.4,7.4-7.4c4.1,0,7.4,3.3,7.4,7.4
		C197.2,267.8,193.9,271.1,189.8,271.1z"/>
	<path class="st0" d="M143.9,271.7c-4.1,0-7.4-3.3-7.4-7.4c0-4.1,3.3-7.4,7.4-7.4s7.4,3.3,7.4,7.4
		C151.3,268.4,148,271.7,143.9,271.7z"/>
	<rect x="355.6" y="299.9" class="st0" width="25.9" height="7.1"/>
	<rect x="288.7" y="264.2" class="st0" width="92.8" height="7.1"/>
	<polyline class="st0" points="107.1,59.8 66.7,59.8 66.7,102.4 66.7,405.2 267,405.2 267,400.2 262,400.2 267,400.2 262,395.1 
		76.8,395.1 76.8,102.4 76.8,69.8 107.1,69.8 	"/>
	<polyline class="st0" points="351.4,202.4 351.4,34.7 129.4,34.7 110.1,53.9 91.1,75.4 91.1,380.1 267.4,380.1 267.4,375 
		266,375.2 266,375.2 266,370.2 101.1,370 101.1,79.2 117.4,60.9 133.5,44.7 341.3,44.7 341.3,200.6 	"/>
	<rect x="153.5" y="91.2" class="st0" width="161.4" height="7.1"/>
	<rect x="260.5" y="119.7" class="st0" width="55.3" height="7.1"/>
	<rect x="259.6" y="147.8" class="st0" width="56.1" height="7.1"/>
	<rect x="259.6" y="176.2" class="st0" width="56.1" height="7.1"/>
	<rect x="173.7" y="306.8" class="st0" width="93.7" height="7.1"/>
	<rect x="124.1" y="215.9" class="st0" width="143.3" height="7.1"/>
	<rect x="264.5" y="240.2" class="st0" width="134.1" height="5.2"/>
	<path class="st0" d="M260.5,410.7V219.9c0-12.5,10.1-22.6,22.6-22.6h97c12.5,0,22.6,10.1,22.6,22.6v190.8
		c0,12.5-10.1,22.6-22.6,22.6h-97C270.6,433.3,260.5,423.2,260.5,410.7z M379.2,205.3h-95.4c-8.5,0-15.4,6.9-15.4,15.4v189.2
		c0,8.5,6.9,15.4,15.4,15.4l0,0h95.4c8.5,0,15.4-6.9,15.4-15.4V220.7C394.6,212.2,387.8,205.4,379.2,205.3L379.2,205.3z"/>
	<rect x="267.4" y="238.7" class="st0" width="132.4" height="7.6"/>
	<rect x="318.9" y="218.6" class="st0" width="29.5" height="7.6"/>
	<rect x="263.6" y="389.5" class="st0" width="134.3" height="7.1"/>
	<rect x="355.6" y="283.5" class="st0" width="25.9" height="7.1"/>
	<rect x="355.6" y="316.2" class="st0" width="25.9" height="7.1"/>
	<rect x="290.1" y="334.9" class="st0" width="92.8" height="7.1"/>
	<rect x="357" y="354.8" class="st0" width="25.9" height="7.1"/>
	<rect x="357" y="371.2" class="st0" width="25.9" height="7.1"/>
	<polygon class="st0" points="135.7,44.7 133.5,44.7 126.1,52.2 126.7,74.1 105.7,74.1 101.1,79.2 101.1,83.8 136.8,83.9 
		135.7,44.7 	"/>
	<path class="st0" d="M96.1,74.1v9.8h5v-4.7l4.6-5.1L96.1,74.1L96.1,74.1z M135.6,42l-9.8,0.3l0,0l0.2,4.9l0.2,4.9l7.4-7.4h2.1
		L135.6,42L135.6,42L135.6,42z"/>
</g>
</svg>
