<?xml version="1.0" encoding="utf-8"?>
<!-- Generator: Adobe Illustrator 19.2.1, SVG Export Plug-In . SVG Version: 6.00 Build 0)  -->
<svg version="1.1" id="Layer_1" xmlns="http://www.w3.org/2000/svg" xmlns:xlink="http://www.w3.org/1999/xlink" x="0px" y="0px"
	 viewBox="0 0 360 360" style="enable-background:new 0 0 360 360;" xml:space="preserve">
<style type="text/css">
	.st0{fill:#D62329;}
</style>
<g>
	<path class="st0" d="M194.7,54.4c-14-21.4-33.4-36.5-58.2-45.2C119.1,3.1,91.4,0,53.1,0H0v255.7h24.5v-24.2v-1.3V25h18.1
		c36.8,0,63.2,2.4,79.2,7.3c21.4,6.5,38,18.5,50,35.9c12,17.5,17.9,38.6,17.9,63.2c0,23.5-5.5,43.4-16.5,59.6
		c-11,16.3-26.2,27.5-45.4,33.8c-13.7,4.4-38.3,6.6-73.7,6.6h-4.3v24.2h31.6c31.9,0,56.7-4.6,74.4-13.9
		c17.7-9.3,32.1-23.6,43.2-43.1c11.1-19.5,16.6-42,16.6-67.6C215.6,101.4,208.6,75.8,194.7,54.4"/>
	<path class="st0" d="M244.5,104.6c-14-21.4-33.4-36.5-58.2-45.2c-17.3-6.1-45.1-9.2-83.4-9.2H49.8v205.5h24.5V75.3h18.1
		c36.8,0,63.2,2.4,79.2,7.3c21.4,6.5,38,18.5,50,35.9c12,17.5,17.9,38.5,17.9,63.2c0,23.5-5.5,43.4-16.5,59.6
		c-11,16.3-26.2,27.5-45.5,33.8c-13.7,4.4-38.2,6.6-73.7,6.6h-1.6v24.2h29c31.9,0,56.7-4.6,74.4-13.9c17.7-9.3,32.1-23.6,43.2-43.1
		c11.1-19.5,16.6-42,16.6-67.6C265.5,151.6,258.5,126.1,244.5,104.6"/>
	<path class="st0" d="M297,158.4c-14-21.4-33.4-36.5-58.2-45.2c-17.3-6.1-45.1-9.2-83.4-9.2h-53.1v201.9h24.5V129.1h18.1
		c36.8,0,63.2,2.4,79.2,7.3c21.4,6.5,38,18.5,50,35.9c12,17.5,17.9,38.5,17.9,63.2c0,23.5-5.5,43.4-16.5,59.6
		c-11,16.3-26.2,27.5-45.5,33.8c-13.7,4.4-38.2,6.6-73.7,6.6h-29.6v-0.1h-24.5v24.3h81.4c31.9,0,56.7-4.6,74.4-13.9
		c17.7-9.3,32.1-23.6,43.2-43.1c11.1-19.5,16.6-42,16.6-67.6C318,205.4,311,179.9,297,158.4"/>
</g>
</svg>
