<?xml version="1.0" encoding="utf-8"?>
<!-- Generator: Adobe Illustrator 19.2.1, SVG Export Plug-In . SVG Version: 6.00 Build 0)  -->
<svg version="1.1" id="Layer_1" xmlns="http://www.w3.org/2000/svg" xmlns:xlink="http://www.w3.org/1999/xlink" x="0px" y="0px"
	 viewBox="0 0 360 360" style="enable-background:new 0 0 360 360;" xml:space="preserve">
<style type="text/css">
	.st0{fill:#333333;stroke:#010101;stroke-miterlimit:10;}
	.st1{fill:#333333;}
	.st2{fill:#333333;stroke:#010101;stroke-width:0.8218;stroke-miterlimit:10;}
</style>
<g>
	<g>
		<g>
			<path class="st0" d="M265.1,238.4"/>
		</g>
		<g>
			<path class="st0" d="M94,239"/>
		</g>
		<g>
			<path class="st1" d="M175.6,259.8C115.7,259.8,67,211.1,67,151.3S115.7,42.8,175.6,42.8c57.1,0,103.6,43.1,108.1,100.2l-5.3,0.4
				c-4.3-54.4-48.4-95.3-102.8-95.3c-56.9,0-103.2,46.3-103.2,103.2s46.3,103.2,103.2,103.2c54,0,99.2-42.1,103-95.9l5.3,0.4
				C279.9,215.5,232.3,259.8,175.6,259.8z"/>
		</g>
		<g>
			<path class="st2" d="M127.4,149.6"/>
		</g>
		<g>
			<path class="st1" d="M176.7,258.6L176.7,258.6c-5.1,0-9.9-2.2-13.3-5.9c-5.4-6-10.9-14.3-16.1-23.9c-0.5-1-1-2-1.6-3
				c-1.6-3.2-3.2-6.4-4.6-9.7l2.7-1.2c1.4,3.2,2.9,6.4,4.5,9.5c0.5,1,1,2,1.5,2.9c5.1,9.4,10.5,17.5,15.7,23.3
				c2.8,3.1,6.8,4.9,11.1,4.9h0c4.2,0,8.2-1.8,11-4.9c12.2-13.6,33.2-42.4,36.8-82l3,0.3c-3.7,40.4-25.2,69.8-37.6,83.7
				C186.6,256.5,181.8,258.6,176.7,258.6z"/>
		</g>
		<g>
			<path class="st1" d="M125.9,136.7c-0.4-20.8,6.1-52.8,39.9-86.9c2.9-2.9,6.8-4.6,11-4.6s8,1.6,11,4.6c6.4,6.5,13.2,15.6,19,25.8
				c0.8,1.4,1.6,2.9,2.4,4.4c0.5,1,1.1,2,1.6,3.1c0.6,1.2,2.8,5.8,3.4,7l-2.7,1.3c-0.6-1.3-2.8-5.8-3.4-7c-0.5-1-1-2-1.6-3
				c-0.8-1.5-1.6-2.9-2.4-4.3c-5.7-10-12.3-18.9-18.5-25.2c-4.7-4.8-13-4.8-17.7,0c-33,33.3-39.5,64.5-39,84.7L125.9,136.7z"/>
		</g>
		<g>
			<rect x="86.2" y="206.3" class="st1" width="46.1" height="3"/>
		</g>
		<g>
			<rect x="145.8" y="206.3" class="st1" width="121.2" height="3"/>
		</g>
		<g>
			<rect x="69.3" y="151" class="st1" width="42.5" height="3"/>
		</g>
		<g>
			<rect x="241.4" y="150.9" class="st1" width="35.2" height="3"/>
		</g>
		<g>
			<rect x="86.5" y="95.5" class="st1" width="122.1" height="3"/>
		</g>
		<g>
			<rect x="225.1" y="95.5" class="st1" width="41.8" height="3"/>
		</g>
		<g>
			<path class="st1" d="M217.4,107.4c-5.7,0-10.4-4.6-10.4-10.4s4.6-10.4,10.4-10.4c5.7,0,10.4,4.6,10.4,10.4
				S223.1,107.4,217.4,107.4z M217.4,92c-2.8,0-5,2.3-5,5s2.3,5,5,5s5-2.3,5-5S220.2,92,217.4,92z"/>
		</g>
		<g>
			<g>
				<path class="st1" d="M134.5,200.5c-1-3.9-2.1-7.7-3.2-11.5c-3.2-11.5-6.6-23.4-7.9-35.7l-0.4-3.3l100.9-0.5
					c0-4.4-0.4-13.2-2.1-22.5l5.8-1.1c2.6,13.8,2.2,26.1,2.2,26.6l-0.1,2.9l-100.1,0.5c1.5,10.6,4.3,20.8,7.3,31.5
					c1.1,3.9,2.2,7.7,3.2,11.6L134.5,200.5z"/>
			</g>
			<g>
				<g>
					<polygon class="st1" points="233.9,126.9 221.6,114.1 216.6,131.2 					"/>
				</g>
			</g>
		</g>
		<g>
			<path class="st1" d="M139.3,208.7"/>
		</g>
		<g>
			<path class="st1" d="M139.3,208.7"/>
		</g>
		<g>
			<rect x="121.6" y="134.3" class="st1" width="10.9" height="3.6"/>
		</g>
		<g>
			<rect x="220.6" y="167.1" class="st1" width="10.9" height="3.6"/>
		</g>
		<g>
			<path class="st1" d="M140.4,217.2c-5.7,0-10.4-4.6-10.4-10.4c0-5.7,4.6-10.4,10.4-10.4c5.7,0,10.4,4.6,10.4,10.4
				C150.7,212.6,146.1,217.2,140.4,217.2z M140.4,201.8c-2.8,0-5,2.3-5,5c0,2.8,2.3,5,5,5s5-2.3,5-5
				C145.4,204.1,143.1,201.8,140.4,201.8z"/>
		</g>
		<g>
			<path class="st1" d="M282.6,162.8c-5.7,0-10.4-4.6-10.4-10.4c0-5.7,4.6-10.4,10.4-10.4s10.4,4.6,10.4,10.4
				C293,158.1,288.3,162.8,282.6,162.8z M282.6,147.4c-2.8,0-5,2.3-5,5c0,2.8,2.3,5,5,5s5-2.3,5-5
				C287.6,149.6,285.4,147.4,282.6,147.4z"/>
		</g>
	</g>
	<g>
		<g>
			<path class="st1" d="M42,333.5c0,8.3-2.4,14.7-7.1,19.1c-4.7,4.4-11.6,6.6-20.5,6.6H0.1v-50.6h15.9c8.3,0,14.7,2.2,19.2,6.5
				C39.7,319.6,42,325.7,42,333.5z M30.9,333.8c0-10.9-4.8-16.3-14.4-16.3h-5.7v32.9h4.6C25.7,350.5,30.9,344.9,30.9,333.8z"/>
		</g>
		<g>
			<path class="st1" d="M79,359.3H49.9v-50.6H79v8.8H60.6v11.1h17.1v8.8H60.6v13H79V359.3z"/>
		</g>
		<g>
			<path class="st1" d="M111.2,316.9c-4,0-7.2,1.5-9.4,4.5c-2.2,3-3.3,7.3-3.3,12.7c0,11.3,4.2,16.9,12.7,16.9
				c3.6,0,7.9-0.9,12.9-2.7v9c-4.2,1.7-8.8,2.6-13.9,2.6c-7.4,0-13-2.2-16.9-6.7c-3.9-4.5-5.8-10.9-5.8-19.2c0-5.3,1-9.9,2.9-13.8
				c1.9-4,4.7-7,8.2-9.1c3.6-2.1,7.8-3.2,12.6-3.2c4.9,0,9.8,1.2,14.8,3.6l-3.5,8.7c-1.9-0.9-3.8-1.7-5.7-2.4
				C114.9,317.3,113,316.9,111.2,316.9z"/>
		</g>
		<g>
			<path class="st1" d="M136.1,359.3v-50.6h10.7v50.6H136.1z"/>
		</g>
		<g>
			<path class="st1" d="M189.6,345.3c0,4.6-1.6,8.2-4.9,10.8c-3.3,2.6-7.9,3.9-13.7,3.9c-5.4,0-10.2-1-14.3-3v-10
				c3.4,1.5,6.3,2.6,8.7,3.2c2.4,0.6,4.5,0.9,6.5,0.9c2.4,0,4.2-0.4,5.4-1.3c1.3-0.9,1.9-2.2,1.9-4c0-1-0.3-1.9-0.8-2.6
				c-0.6-0.8-1.4-1.5-2.4-2.2c-1.1-0.7-3.3-1.9-6.6-3.4c-3.1-1.5-5.4-2.8-7-4.2c-1.5-1.3-2.8-2.9-3.7-4.7c-0.9-1.8-1.4-3.9-1.4-6.2
				c0-4.5,1.5-8,4.5-10.6c3-2.6,7.2-3.8,12.6-3.8c2.6,0,5.1,0.3,7.5,0.9c2.4,0.6,4.9,1.5,7.5,2.6l-3.5,8.3c-2.7-1.1-4.9-1.9-6.7-2.3
				c-1.8-0.4-3.5-0.7-5.2-0.7c-2,0-3.6,0.5-4.7,1.4c-1.1,0.9-1.6,2.2-1.6,3.7c0,0.9,0.2,1.8,0.7,2.5c0.4,0.7,1.1,1.4,2.1,2
				c1,0.7,3.2,1.8,6.8,3.5c4.7,2.3,8,4.5,9.7,6.8C188.7,339.2,189.6,342,189.6,345.3z"/>
		</g>
		<g>
			<path class="st1" d="M199.5,359.3v-50.6h10.7v50.6H199.5z"/>
		</g>
		<g>
			<path class="st1" d="M266.6,334c0,8.4-2.1,14.8-6.2,19.3c-4.2,4.5-10.1,6.7-17.8,6.7c-7.7,0-13.7-2.2-17.8-6.7
				c-4.2-4.5-6.2-11-6.2-19.4c0-8.4,2.1-14.8,6.2-19.3c4.2-4.4,10.1-6.7,17.9-6.7c7.8,0,13.7,2.2,17.8,6.7
				C264.6,319.1,266.6,325.6,266.6,334z M229.7,334c0,5.7,1.1,9.9,3.2,12.8c2.1,2.9,5.3,4.3,9.6,4.3c8.6,0,12.8-5.7,12.8-17.1
				c0-11.4-4.3-17.1-12.8-17.1c-4.3,0-7.5,1.4-9.7,4.3C230.8,324,229.7,328.3,229.7,334z"/>
		</g>
		<g>
			<path class="st1" d="M318.3,359.3h-13.6l-22-38.3h-0.3c0.4,6.8,0.7,11.6,0.7,14.5v23.8h-9.6v-50.6H287l22,37.9h0.2
				c-0.3-6.6-0.5-11.2-0.5-13.9v-23.9h9.7V359.3z"/>
			<path class="st1" d="M359.9,345.3c0,4.6-1.6,8.2-4.9,10.8c-3.3,2.6-7.9,3.9-13.7,3.9c-5.4,0-10.2-1-14.3-3v-10
				c3.4,1.5,6.3,2.6,8.7,3.2c2.4,0.6,4.5,0.9,6.5,0.9c2.4,0,4.2-0.4,5.4-1.3c1.3-0.9,1.9-2.2,1.9-4c0-1-0.3-1.9-0.8-2.6
				c-0.6-0.8-1.4-1.5-2.4-2.2c-1.1-0.7-3.3-1.9-6.6-3.4c-3.1-1.5-5.4-2.8-7-4.2c-1.5-1.3-2.8-2.9-3.7-4.7c-0.9-1.8-1.4-3.9-1.4-6.2
				c0-4.5,1.5-8,4.5-10.6c3-2.6,7.2-3.8,12.6-3.8c2.6,0,5.1,0.3,7.5,0.9c2.4,0.6,4.9,1.5,7.5,2.6l-3.5,8.3c-2.7-1.1-4.9-1.9-6.7-2.3
				c-1.8-0.4-3.5-0.7-5.2-0.7c-2,0-3.6,0.5-4.7,1.4c-1.1,0.9-1.6,2.2-1.6,3.7c0,0.9,0.2,1.8,0.7,2.5c0.4,0.7,1.1,1.4,2.1,2
				c1,0.7,3.2,1.8,6.8,3.5c4.7,2.3,8,4.5,9.7,6.8C359.1,339.2,359.9,342,359.9,345.3z"/>
		</g>
	</g>
</g>
</svg>
