<?xml version="1.0" encoding="utf-8"?>
<!-- Generator: Adobe Illustrator 19.2.1, SVG Export Plug-In . SVG Version: 6.00 Build 0)  -->
<svg version="1.1" id="Layer_1" xmlns="http://www.w3.org/2000/svg" xmlns:xlink="http://www.w3.org/1999/xlink" x="0px" y="0px"
	 viewBox="0 0 360 360" style="enable-background:new 0 0 360 360;" xml:space="preserve">
<style type="text/css">
	.st0{fill:#333333;}
</style>
<g>
	<g>
		<g>
			<path class="st0" d="M243.3,243.6c-2.6,0-4.6-2.1-4.6-4.6c0-2.6,2.1-4.6,4.6-4.6c2.6,0,4.6,2.1,4.6,4.6
				C247.9,241.6,245.8,243.6,243.3,243.6z"/>
		</g>
		<g>
			<path class="st0" d="M182,151.1c-2.6,0-4.7-2.1-4.7-4.7c0-2.6,2.1-4.7,4.7-4.7s4.7,2.1,4.7,4.7C186.8,149,184.6,151.1,182,151.1z
				"/>
		</g>
		<g>
			<path class="st0" d="M151.4,150.9c-2.6,0-4.7-2.1-4.7-4.7s2.1-4.7,4.7-4.7s4.7,2.1,4.7,4.7S154,150.9,151.4,150.9z"/>
		</g>
		<g>
			<path class="st0" d="M122.1,151.3c-2.6,0-4.7-2.1-4.7-4.7c0-2.6,2.1-4.7,4.7-4.7s4.7,2.1,4.7,4.7
				C126.8,149.2,124.7,151.3,122.1,151.3z"/>
		</g>
		<g>
			<rect x="257.2" y="169.3" class="st0" width="16.5" height="4.5"/>
		</g>
		<g>
			<rect x="214.5" y="146.5" class="st0" width="59.2" height="4.5"/>
		</g>
		<g>
			<polyline class="st0" points="98.6,16 72.8,16 72.8,43.2 72.8,236.5 200.7,236.5 200.7,233.3 197.5,233.3 200.7,233.3 
				197.5,230.1 79.2,230.1 79.2,43.2 79.2,22.4 98.6,22.4 			"/>
		</g>
		<g>
			<polyline class="st0" points="254.5,107.1 254.5,0 112.8,0 100.5,12.3 88.4,26 88.4,220.5 200.9,220.5 200.9,217.3 200,217.4 
				200,217.4 200,214.2 94.7,214.1 94.7,28.4 105.1,16.7 115.4,6.4 248.1,6.4 248.1,105.9 			"/>
		</g>
		<g>
			<rect x="128.2" y="36.1" class="st0" width="103.1" height="4.5"/>
		</g>
		<g>
			<rect x="196.5" y="54.2" class="st0" width="35.3" height="4.5"/>
		</g>
		<g>
			<rect x="195.9" y="72.2" class="st0" width="35.8" height="4.5"/>
		</g>
		<g>
			<rect x="195.9" y="90.3" class="st0" width="35.8" height="4.5"/>
		</g>
		<g>
			<rect x="141.1" y="173.7" class="st0" width="59.8" height="4.5"/>
		</g>
		<g>
			<rect x="109.4" y="115.7" class="st0" width="91.5" height="4.5"/>
		</g>
		<g>
			<rect x="199.1" y="131.2" class="st0" width="85.6" height="3.3"/>
		</g>
		<g>
			<path class="st0" d="M196.5,240V118.2c0-7.9,6.5-14.4,14.4-14.4h61.9c7.9,0,14.4,6.5,14.4,14.4V240c0,7.9-6.4,14.4-14.4,14.4
				h-61.9C203,254.4,196.5,247.9,196.5,240z M272.3,108.9h-60.9c-5.4,0-9.8,4.4-9.8,9.8v120.8c0,5.4,4.4,9.8,9.8,9.8h60.9
				c5.4,0,9.8-4.4,9.8-9.8V118.8C282.1,113.3,277.7,108.9,272.3,108.9z"/>
		</g>
		<g>
			<rect x="200.9" y="130.2" class="st0" width="84.5" height="4.8"/>
		</g>
		<g>
			<rect x="233.8" y="117.4" class="st0" width="18.8" height="4.8"/>
		</g>
		<g>
			<rect x="198.5" y="226.5" class="st0" width="85.7" height="4.5"/>
		</g>
		<g>
			<rect x="257.2" y="158.8" class="st0" width="16.5" height="4.5"/>
		</g>
		<g>
			<rect x="257.2" y="179.7" class="st0" width="16.5" height="4.5"/>
		</g>
		<g>
			<rect x="215.4" y="191.6" class="st0" width="59.2" height="4.5"/>
		</g>
		<g>
			<rect x="258.1" y="204.3" class="st0" width="16.5" height="4.5"/>
		</g>
		<g>
			<rect x="258.1" y="214.8" class="st0" width="16.5" height="4.5"/>
		</g>
		<g>
			<polygon class="st0" points="116.8,6.4 115.4,6.4 110.7,11.1 111.1,25.1 97.7,25.1 94.7,28.4 94.7,31.4 117.5,31.4 116.8,6.4 			
				"/>
		</g>
		<g>
			<path class="st0" d="M91.5,25.1v3.1v3.1l3.2,0v-3l2.9-3.3l-3.2,0L91.5,25.1L91.5,25.1z M116.7,4.7l-6.2,0.2h0l0.1,3.1l0.1,3.1
				l4.7-4.7h1.4L116.7,4.7L116.7,4.7z"/>
		</g>
	</g>
	<g>
		<g>
			<path class="st0" d="M68.4,332.5c0,8.8-2.5,15.6-7.5,20.3c-5,4.7-12.3,7-21.7,7H23.9v-53.6h16.8c8.7,0,15.5,2.3,20.4,6.9
				S68.4,324.2,68.4,332.5z M56.6,332.8c0-11.5-5.1-17.3-15.2-17.3h-6v34.9h4.9C51.1,350.4,56.6,344.5,56.6,332.8z"/>
		</g>
		<g>
			<path class="st0" d="M108.3,359.8H77.5v-53.6h30.8v9.3H88.8v11.8H107v9.3H88.8v13.8h19.5V359.8z"/>
		</g>
		<g>
			<path class="st0" d="M154.1,344.9c0,4.8-1.7,8.6-5.2,11.4c-3.5,2.8-8.3,4.2-14.5,4.2c-5.7,0-10.8-1.1-15.2-3.2v-10.6
				c3.6,1.6,6.7,2.7,9.2,3.4c2.5,0.7,4.8,1,6.9,1c2.5,0,4.4-0.5,5.7-1.4c1.3-1,2-2.4,2-4.2c0-1-0.3-2-0.9-2.8
				c-0.6-0.8-1.4-1.6-2.6-2.4c-1.1-0.8-3.5-2-6.9-3.6c-3.3-1.5-5.7-3-7.4-4.4c-1.6-1.4-2.9-3.1-3.9-4.9c-1-1.9-1.5-4.1-1.5-6.6
				c0-4.7,1.6-8.5,4.8-11.2c3.2-2.7,7.7-4.1,13.3-4.1c2.8,0,5.4,0.3,8,1c2.5,0.7,5.2,1.6,7.9,2.8l-3.7,8.8c-2.9-1.2-5.2-2-7.1-2.5
				c-1.9-0.5-3.7-0.7-5.5-0.7c-2.1,0-3.8,0.5-4.9,1.5c-1.1,1-1.7,2.3-1.7,3.9c0,1,0.2,1.9,0.7,2.6c0.5,0.7,1.2,1.5,2.2,2.2
				c1,0.7,3.4,1.9,7.2,3.8c5,2.4,8.4,4.8,10.3,7.2C153.2,338.5,154.1,341.4,154.1,344.9z"/>
		</g>
		<g>
			<path class="st0" d="M166,359.8v-53.6h11.4v53.6H166z"/>
			<path class="st0" d="M210.8,329.7h21.2v27.8c-3.4,1.1-6.7,1.9-9.7,2.4c-3,0.5-6.1,0.7-9.3,0.7c-8.1,0-14.3-2.4-18.5-7.1
				c-4.3-4.8-6.4-11.6-6.4-20.5c0-8.6,2.5-15.4,7.4-20.2c4.9-4.8,11.8-7.3,20.6-7.3c5.5,0,10.8,1.1,15.9,3.3l-3.8,9.1
				c-3.9-2-8-2.9-12.2-2.9c-4.9,0-8.8,1.6-11.8,4.9c-3,3.3-4.4,7.7-4.4,13.3c0,5.8,1.2,10.3,3.6,13.3c2.4,3.1,5.8,4.6,10.4,4.6
				c2.4,0,4.8-0.2,7.2-0.7v-11.2h-10.1V329.7z"/>
			<path class="st0" d="M291,359.8h-14.4l-23.3-40.5h-0.3c0.5,7.2,0.7,12.3,0.7,15.3v25.2h-10.1v-53.6h14.3l23.3,40.1h0.3
				c-0.4-7-0.5-11.9-0.5-14.8v-25.4H291V359.8z"/>
			<path class="st0" d="M336.1,344.9c0,4.8-1.7,8.6-5.2,11.4c-3.5,2.8-8.3,4.2-14.5,4.2c-5.7,0-10.8-1.1-15.2-3.2v-10.6
				c3.6,1.6,6.7,2.7,9.2,3.4c2.5,0.7,4.8,1,6.9,1c2.5,0,4.4-0.5,5.7-1.4c1.3-1,2-2.4,2-4.2c0-1-0.3-2-0.9-2.8
				c-0.6-0.8-1.4-1.6-2.6-2.4c-1.1-0.8-3.5-2-6.9-3.6c-3.3-1.5-5.7-3-7.4-4.4c-1.6-1.4-2.9-3.1-3.9-4.9c-1-1.9-1.5-4.1-1.5-6.6
				c0-4.7,1.6-8.5,4.8-11.2c3.2-2.7,7.7-4.1,13.3-4.1c2.8,0,5.4,0.3,8,1c2.5,0.7,5.2,1.6,7.9,2.8l-3.7,8.8c-2.9-1.2-5.2-2-7.1-2.5
				c-1.9-0.5-3.7-0.7-5.5-0.7c-2.1,0-3.8,0.5-4.9,1.5c-1.1,1-1.7,2.3-1.7,3.9c0,1,0.2,1.9,0.7,2.6c0.5,0.7,1.2,1.5,2.2,2.2
				c1,0.7,3.4,1.9,7.2,3.8c5,2.4,8.4,4.8,10.3,7.2C335.2,338.5,336.1,341.4,336.1,344.9z"/>
		</g>
	</g>
</g>
</svg>
