<?xml version="1.0" encoding="utf-8"?>
<!-- Generator: Adobe Illustrator 19.2.1, SVG Export Plug-In . SVG Version: 6.00 Build 0)  -->
<svg version="1.1" id="Layer_1" xmlns="http://www.w3.org/2000/svg" xmlns:xlink="http://www.w3.org/1999/xlink" x="0px" y="0px"
	 viewBox="0 0 1080 259.2" style="enable-background:new 0 0 1080 259.2;" xml:space="preserve">
<style type="text/css">
	.st0{fill:#D62329;}
	.st1{fill:#333333;stroke:#010101;stroke-miterlimit:10;}
	.st2{fill:#333333;}
	.st3{fill:#333333;stroke:#010101;stroke-width:0.8218;stroke-miterlimit:10;}
</style>
<g>
	<g>
		<path class="st0" d="M138.7,40.1c-10-15.2-23.8-25.9-41.5-32.2c-12.3-4.3-32-6.6-59.4-6.6H0v182.2h17.4v-17.2v-0.9V19.2h12.9
			c26.2,0,45.1,1.7,56.4,5.2c15.2,4.6,27.1,13.2,35.6,25.6c8.6,12.5,12.8,27.4,12.8,45.1c0,16.7-3.9,31-11.8,42.4
			c-7.9,11.6-18.6,19.7-32.4,24.1c-9.8,3.1-27.2,4.7-52.5,4.7h-3v17.2H58c22.7,0,40.4-3.3,53-9.9s22.9-16.8,30.7-30.8
			s11.9-29.9,11.9-48.2C153.6,73.7,148.6,55.4,138.7,40.1"/>
		<path class="st0" d="M174.2,76c-10-15.2-23.8-26-41.4-32.2c-12.3-4.3-32.2-6.6-59.4-6.6H35.5v146.4h17.4V55h12.9
			c26.2,0,45.1,1.7,56.4,5.1c15.2,4.6,27.1,13.2,35.6,25.6c8.5,12.4,12.8,27.4,12.8,45.1c0,16.7-3.9,30.9-11.8,42.5
			c-7.9,11.6-18.6,19.6-32.4,24.1c-9.8,3.1-27.2,4.7-52.5,4.7h-1.1v17.2h20.7c22.7,0,40.4-3.3,53-9.9c12.6-6.7,22.9-16.8,30.7-30.8
			s11.8-29.9,11.8-48.2C189.1,109.5,184.1,91.2,174.2,76"/>
		<path class="st0" d="M211.5,114.3c-10-15.3-23.8-26-41.4-32.3c-12.3-4.3-32.2-6.6-59.4-6.6H72.9v143.9h17.4v-126h12.9
			c26.2,0,45.1,1.7,56.4,5.1c15.2,4.6,27.1,13.1,35.6,25.6c8.6,12.5,12.8,27.4,12.8,45.1c0,16.7-3.9,31-11.8,42.5
			s-18.6,19.6-32.4,24.1c-9.8,3.1-27.2,4.7-52.5,4.7H90.3v-0.2H72.9v17.2h58c22.8,0,40.4-3.3,53-9.9c12.6-6.7,22.9-16.8,30.7-30.8
			s11.8-29.9,11.8-48.2C226.5,147.8,221.5,129.5,211.5,114.3"/>
	</g>
	<g>
		<g>
			<g>
				<path class="st1" d="M1004.7,165"/>
			</g>
			<g>
				<path class="st1" d="M876.7,165.4"/>
			</g>
			<g>
				<path class="st2" d="M937.8,181.2c-44.7,0-81.1-36.4-81.1-81.2s36.4-81.2,81.1-81.2c42.7,0,77.5,32.3,80.8,75l-3.9,0.3
					c-3.2-40.6-36.2-71.4-76.9-71.4c-42.5,0-77.2,34.7-77.2,77.2s34.7,77.2,77.2,77.2c40.4,0,74.2-31.6,77-71.8l3.9,0.3
					C1015.8,148,980.2,181.2,937.8,181.2z"/>
			</g>
			<g>
				<path class="st3" d="M901.7,98.7"/>
			</g>
			<g>
				<path class="st2" d="M938.6,180.3L938.6,180.3c-3.8,0-7.5-1.6-10-4.4c-4-4.5-8.2-10.7-12.1-17.9c-0.4-0.7-0.8-1.5-1.2-2.2
					c-1.2-2.3-2.4-4.8-3.4-7.3l2-0.9c1,2.4,2.2,4.7,3.4,7.2c0.4,0.7,0.8,1.5,1.1,2.2c3.8,7.1,7.9,13.1,11.8,17.4
					c2.1,2.3,5.1,3.7,8.3,3.7l0,0c3.1,0,6.1-1.3,8.3-3.6c9.1-10.2,24.8-31.8,27.5-61.3l2.2,0.2c-2.8,30.2-18.8,52.2-28.1,62.6
					C946.1,178.7,942.4,180.3,938.6,180.3z"/>
			</g>
			<g>
				<path class="st2" d="M900.6,89c-0.3-15.6,4.5-39.5,29.8-65c2.2-2.2,5.1-3.4,8.2-3.4c3.1,0,6,1.2,8.2,3.4
					c4.8,4.8,9.9,11.7,14.2,19.4c0.6,1.1,1.2,2.2,1.8,3.3c0.4,0.8,0.8,1.5,1.2,2.3c0.5,0.9,2.1,4.3,2.5,5.2l-2,0.9
					c-0.4-0.9-2.1-4.3-2.5-5.2c-0.4-0.8-0.8-1.5-1.2-2.2c-0.6-1.1-1.2-2.2-1.8-3.2c-4.2-7.5-9.2-14.1-13.9-18.9
					c-3.5-3.5-9.7-3.5-13.2,0c-24.7,24.9-29.5,48.2-29.2,63.4H900.6z"/>
			</g>
			<g>
				<rect x="870.9" y="141.1" class="st2" width="34.5" height="2.2"/>
			</g>
			<g>
				<rect x="915.5" y="141.1" class="st2" width="90.6" height="2.2"/>
			</g>
			<g>
				<rect x="858.3" y="99.7" class="st2" width="31.7" height="2.2"/>
			</g>
			<g>
				<rect x="987" y="99.7" class="st2" width="26.4" height="2.2"/>
			</g>
			<g>
				<rect x="871.2" y="58.2" class="st2" width="91.3" height="2.2"/>
			</g>
			<g>
				<rect x="974.8" y="58.2" class="st2" width="31.3" height="2.2"/>
			</g>
			<g>
				<path class="st2" d="M969,67c-4.2,0-7.8-3.4-7.8-7.8s3.4-7.8,7.8-7.8c4.2,0,7.8,3.4,7.8,7.8S973.4,67,969,67z M969,55.5
					c-2.1,0-3.7,1.7-3.7,3.7c0,2.1,1.7,3.7,3.7,3.7c2.1,0,3.7-1.7,3.7-3.7C972.9,57.3,971.2,55.5,969,55.5z"/>
			</g>
			<g>
				<g>
					<path class="st2" d="M907.1,136.8c-0.7-2.9-1.5-5.7-2.3-8.6c-2.4-8.6-4.9-17.4-5.9-26.7l-0.3-2.4l75.5-0.4
						c0-3.2-0.3-9.9-1.6-16.8l4.3-0.8c1.9,10.4,1.7,19.6,1.6,20l-0.1,2.1l-74.9,0.4c1.1,8,3.2,15.5,5.4,23.6
						c0.8,2.9,1.6,5.7,2.4,8.7L907.1,136.8z"/>
				</g>
				<g>
					<g>
						<polygon class="st2" points="981.3,81.7 972.2,72.1 968.4,84.9 						"/>
					</g>
				</g>
			</g>
			<g>
				<path class="st2" d="M910.6,142.9"/>
			</g>
			<g>
				<path class="st2" d="M910.6,142.9"/>
			</g>
			<g>
				<rect x="897.4" y="87.2" class="st2" width="8.2" height="2.6"/>
			</g>
			<g>
				<rect x="971.5" y="111.8" class="st2" width="8.2" height="2.6"/>
			</g>
			<g>
				<path class="st2" d="M911.4,149.3c-4.2,0-7.8-3.4-7.8-7.8s3.4-7.8,7.8-7.8c4.3,0,7.8,3.4,7.8,7.8S915.7,149.3,911.4,149.3z
					 M911.4,137.7c-2.1,0-3.7,1.7-3.7,3.7c0,2.1,1.7,3.7,3.7,3.7c2,0,3.7-1.7,3.7-3.7C915.2,139.4,913.5,137.7,911.4,137.7z"/>
			</g>
			<g>
				<path class="st2" d="M1017.8,108.5c-4.2,0-7.8-3.4-7.8-7.8s3.4-7.8,7.8-7.8c4.2,0,7.8,3.4,7.8,7.8S1022,108.5,1017.8,108.5z
					 M1017.8,97c-2.1,0-3.7,1.7-3.7,3.7c0,2.1,1.7,3.7,3.7,3.7s3.7-1.7,3.7-3.7C1021.5,98.7,1019.9,97,1017.8,97z"/>
			</g>
		</g>
		<g>
			<g>
				<path class="st2" d="M453.2,173.5c-1.8,0-3.2-1.5-3.2-3.2s1.5-3.2,3.2-3.2c1.8,0,3.2,1.5,3.2,3.2S455,173.5,453.2,173.5z"/>
			</g>
			<g>
				<path class="st2" d="M410,108.2c-1.8,0-3.3-1.5-3.3-3.3c0-1.8,1.5-3.3,3.3-3.3s3.3,1.5,3.3,3.3
					C413.4,106.7,411.9,108.2,410,108.2z"/>
			</g>
			<g>
				<path class="st2" d="M388.4,108.1c-1.8,0-3.3-1.5-3.3-3.3c0-1.8,1.5-3.3,3.3-3.3s3.3,1.5,3.3,3.3
					C391.7,106.6,390.2,108.1,388.4,108.1z"/>
			</g>
			<g>
				<path class="st2" d="M367.7,108.3c-1.8,0-3.3-1.5-3.3-3.3c0-1.8,1.5-3.3,3.3-3.3c1.8,0,3.3,1.5,3.3,3.3
					C371,106.8,369.5,108.3,367.7,108.3z"/>
			</g>
			<g>
				<rect x="463.1" y="121" class="st2" width="11.7" height="3.2"/>
			</g>
			<g>
				<rect x="433" y="104.9" class="st2" width="41.8" height="3.2"/>
			</g>
			<g>
				<polyline class="st2" points="351.1,12.7 332.9,12.7 332.9,32 332.9,168.5 423.2,168.5 423.2,166.2 421,166.2 423.2,166.2 
					421,163.9 337.4,163.9 337.4,32 337.4,17.2 351.1,17.2 				"/>
			</g>
			<g>
				<polyline class="st2" points="461.2,77 461.2,1.4 361.1,1.4 352.4,10.1 343.9,19.8 343.9,157.2 423.4,157.2 423.4,154.9 
					422.7,155 422.7,155 422.7,152.7 348.4,152.6 348.4,21.5 355.8,13.2 363,5.9 456.7,5.9 456.7,76.2 				"/>
			</g>
			<g>
				<rect x="372" y="26.9" class="st2" width="72.8" height="3.2"/>
			</g>
			<g>
				<rect x="420.3" y="39.7" class="st2" width="24.9" height="3.2"/>
			</g>
			<g>
				<rect x="419.9" y="52.4" class="st2" width="25.3" height="3.2"/>
			</g>
			<g>
				<rect x="419.9" y="65.2" class="st2" width="25.3" height="3.2"/>
			</g>
			<g>
				<rect x="381.2" y="124.1" class="st2" width="42.2" height="3.2"/>
			</g>
			<g>
				<rect x="358.8" y="83.1" class="st2" width="64.6" height="3.2"/>
			</g>
			<g>
				<rect x="422.1" y="94.1" class="st2" width="60.5" height="2.3"/>
			</g>
			<g>
				<path class="st2" d="M420.3,171V85c0-5.5,4.5-10.2,10.2-10.2h43.7c5.5,0,10.2,4.5,10.2,10.2v86c0,5.6-4.5,10.2-10.2,10.2h-43.7
					C424.8,181.2,420.3,176.5,420.3,171z M473.8,78.3h-43c-3.8,0-7,3.1-7,7v85.3c0,3.8,3.1,7,7,7h43c3.8,0,7-3.1,7-7V85.3
					C480.7,81.5,477.6,78.3,473.8,78.3z"/>
			</g>
			<g>
				<rect x="423.4" y="93.5" class="st2" width="59.7" height="3.4"/>
			</g>
			<g>
				<rect x="446.6" y="84.4" class="st2" width="13.3" height="3.4"/>
			</g>
			<g>
				<rect x="421.7" y="161.4" class="st2" width="60.6" height="3.2"/>
			</g>
			<g>
				<rect x="463.1" y="113.6" class="st2" width="11.7" height="3.2"/>
			</g>
			<g>
				<rect x="463.1" y="128.3" class="st2" width="11.7" height="3.2"/>
			</g>
			<g>
				<rect x="433.6" y="136.8" class="st2" width="41.8" height="3.2"/>
			</g>
			<g>
				<rect x="463.7" y="145.8" class="st2" width="11.7" height="3.2"/>
			</g>
			<g>
				<rect x="463.7" y="153.1" class="st2" width="11.7" height="3.2"/>
			</g>
			<g>
				<polygon class="st2" points="363.9,5.9 363,5.9 359.6,9.3 359.9,19.1 350.4,19.1 348.4,21.5 348.4,23.6 364.5,23.6 				"/>
			</g>
			<g>
				<path class="st2" d="M346.1,19.1v2.2v2.2h2.2v-2.1l2-2.3h-2.2H346.1L346.1,19.1z M363.9,4.7l-4.4,0.1l0,0l0.1,2.2l0.1,2.2
					l3.3-3.3h1L363.9,4.7L363.9,4.7z"/>
			</g>
		</g>
	</g>
	<g>
		<g>
			<path class="st2" d="M329.8,237.9c0,6.3-1.8,11-5.3,14.3c-3.5,3.3-8.7,4.9-15.3,4.9h-10.8v-37.8h11.9c6.1,0,11,1.6,14.4,4.9
				C328.1,227.5,329.8,232,329.8,237.9z M321.4,238.1c0-8.2-3.6-12.2-10.8-12.2h-4.2v24.6h3.4C317.6,250.5,321.4,246.4,321.4,238.1z
				"/>
		</g>
		<g>
			<path class="st2" d="M358,257.2h-21.8v-37.8H358v6.6h-13.8v8.3H357v6.6h-12.8v9.8H358V257.2z"/>
		</g>
		<g>
			<path class="st2" d="M390.3,246.7c0,3.4-1.2,6.2-3.7,8.1c-2.4,2-5.8,2.9-10.3,2.9c-4,0-7.6-0.8-10.7-2.3v-7.5
				c2.5,1.1,4.7,1.9,6.5,2.4c1.8,0.5,3.4,0.7,4.8,0.7c1.7,0,3.1-0.3,4-1c0.9-0.7,1.4-1.7,1.4-3c0-0.7-0.2-1.4-0.6-2
				c-0.4-0.6-1-1.1-1.8-1.7c-0.8-0.5-2.4-1.4-4.9-2.5c-2.3-1.1-4-2.1-5.2-3.1c-1.1-1-2.1-2.1-2.7-3.5c-0.7-1.3-1-2.9-1-4.6
				c0-3.3,1.1-5.9,3.4-7.9c2.3-1.9,5.4-2.8,9.4-2.8c2,0,3.8,0.2,5.6,0.7c1.8,0.5,3.6,1.1,5.6,2l-2.6,6.3c-2-0.8-3.7-1.4-5-1.7
				s-2.6-0.5-3.9-0.5c-1.5,0-2.7,0.4-3.5,1.1c-0.8,0.7-1.2,1.6-1.2,2.7c0,0.7,0.2,1.3,0.5,1.8c0.3,0.5,0.8,1,1.6,1.5
				c0.7,0.5,2.4,1.4,5,2.6c3.5,1.7,5.9,3.4,7.3,5C389.6,242.1,390.3,244.2,390.3,246.7z"/>
		</g>
		<g>
			<path class="st2" d="M398.7,257.2v-37.8h8.1v37.8H398.7z"/>
			<path class="st2" d="M430.3,235.9h15v19.7c-2.4,0.8-4.7,1.3-6.9,1.7c-2.1,0.3-4.3,0.5-6.6,0.5c-5.7,0-10.1-1.7-13.1-5
				c-3-3.3-4.5-8.2-4.5-14.4c0-6.2,1.7-10.9,5.2-14.3c3.5-3.4,8.4-5.1,14.5-5.1c3.9,0,7.7,0.8,11.2,2.3l-2.6,6.5
				c-2.7-1.4-5.6-2.1-8.6-2.1c-3.4,0-6.2,1.2-8.4,3.5c-2.1,2.3-3.1,5.4-3.1,9.4c0,4.1,0.8,7.3,2.5,9.4s4.1,3.2,7.4,3.2
				c1.7,0,3.3-0.2,5.1-0.5v-7.9h-7.3V235.9z"/>
			<path class="st2" d="M487,257.2h-10.2l-16.4-28.6h-0.2c0.3,5,0.5,8.7,0.5,10.8v17.8h-7.2v-37.8h10.1l16.4,28.3h0.2
				c-0.3-4.9-0.4-8.4-0.4-10.4v-17.9h7.3v37.8H487z"/>
			<path class="st2" d="M518.8,246.7c0,3.4-1.2,6.2-3.7,8.1c-2.4,2-5.8,2.9-10.3,2.9c-4,0-7.6-0.8-10.7-2.3v-7.5
				c2.5,1.1,4.7,1.9,6.5,2.4c1.8,0.5,3.4,0.7,4.8,0.7c1.7,0,3.1-0.3,4-1c0.9-0.7,1.4-1.7,1.4-3c0-0.7-0.2-1.4-0.6-2
				c-0.4-0.6-1-1.1-1.8-1.7c-0.8-0.5-2.4-1.4-4.9-2.5c-2.3-1.1-4-2.1-5.2-3.1c-1.1-1-2.1-2.1-2.7-3.5c-0.7-1.3-1-2.9-1-4.6
				c0-3.3,1.1-5.9,3.4-7.9c2.3-1.9,5.4-2.8,9.4-2.8c2,0,3.8,0.2,5.6,0.7c1.8,0.5,3.6,1.1,5.6,2l-2.6,6.3c-2-0.8-3.7-1.4-5-1.7
				c-1.3-0.3-2.6-0.5-3.9-0.5c-1.5,0-2.7,0.4-3.5,1.1c-0.8,0.7-1.2,1.6-1.2,2.7c0,0.7,0.2,1.3,0.5,1.8c0.3,0.5,0.8,1,1.6,1.5
				c0.7,0.5,2.4,1.4,5,2.6c3.5,1.7,5.9,3.4,7.3,5C518.1,242.1,518.8,244.2,518.8,246.7z"/>
		</g>
	</g>
	<g>
		<g>
			<path class="st2" d="M842.2,237.9c0,6.3-1.8,11-5.3,14.3c-3.5,3.3-8.7,4.9-15.3,4.9h-10.7v-37.8h11.9c6.1,0,11,1.6,14.4,4.9
				C840.4,227.5,842.2,232,842.2,237.9z M833.8,238.1c0-8.2-3.6-12.2-10.8-12.2h-4.2v24.6h3.4C830,250.5,833.8,246.4,833.8,238.1z"
				/>
		</g>
		<g>
			<path class="st2" d="M869.8,257.2H848v-37.8h21.8v6.6H856v8.3h12.8v6.6H856v9.8h13.8V257.2z"/>
		</g>
		<g>
			<path class="st2" d="M893.9,225.4c-3,0-5.3,1.1-7.1,3.4c-1.6,2.3-2.5,5.4-2.5,9.5c0,8.5,3.1,12.7,9.5,12.7c2.6,0,5.8-0.7,9.7-2
				v6.8c-3.1,1.3-6.6,1.9-10.4,1.9c-5.5,0-9.7-1.7-12.6-5c-2.9-3.3-4.3-8.2-4.3-14.4c0-3.9,0.7-7.4,2.1-10.4
				c1.4-2.9,3.5-5.2,6.1-6.9c2.7-1.6,5.8-2.3,9.5-2.3c3.6,0,7.4,0.9,11.1,2.6l-2.6,6.6c-1.4-0.7-2.8-1.2-4.2-1.7
				C896.7,225.7,895.3,225.4,893.9,225.4z"/>
		</g>
		<g>
			<path class="st2" d="M912.5,257.2v-37.8h8.1v37.8H912.5z"/>
		</g>
		<g>
			<path class="st2" d="M952.5,246.7c0,3.4-1.2,6.2-3.7,8.1c-2.4,2-5.8,2.9-10.3,2.9c-4,0-7.6-0.8-10.7-2.3v-7.5
				c2.5,1.1,4.7,1.9,6.5,2.4c1.8,0.5,3.4,0.7,4.8,0.7c1.7,0,3.1-0.3,4-1c0.9-0.7,1.4-1.7,1.4-3c0-0.7-0.2-1.4-0.6-2
				c-0.4-0.6-1-1.1-1.8-1.7c-0.8-0.5-2.4-1.4-4.9-2.5c-2.3-1.1-4-2.1-5.2-3.1c-1.1-1-2.1-2.1-2.7-3.5c-0.7-1.3-1-2.9-1-4.6
				c0-3.3,1.1-5.9,3.4-7.9c2.3-1.9,5.4-2.8,9.4-2.8c2,0,3.8,0.2,5.6,0.7c1.8,0.5,3.6,1.1,5.6,2l-2.6,6.3c-2-0.8-3.7-1.4-5-1.7
				s-2.6-0.5-3.9-0.5c-1.5,0-2.7,0.4-3.5,1.1c-0.8,0.7-1.2,1.6-1.2,2.7c0,0.7,0.2,1.3,0.5,1.8c0.3,0.5,0.8,1,1.6,1.5
				c0.7,0.5,2.4,1.4,5,2.6c3.5,1.7,5.9,3.4,7.3,5C951.9,242.1,952.5,244.2,952.5,246.7z"/>
		</g>
		<g>
			<path class="st2" d="M960,257.2v-37.8h8.1v37.8H960z"/>
		</g>
		<g>
			<path class="st2" d="M1010.2,238.2c0,6.3-1.5,11.1-4.6,14.4c-3.1,3.3-7.6,5-13.3,5c-5.8,0-10.3-1.7-13.3-5
				c-3.1-3.3-4.6-8.2-4.6-14.5c0-6.3,1.5-11.1,4.6-14.4c3.1-3.3,7.6-4.9,13.4-4.9c5.8,0,10.3,1.7,13.3,5S1010.2,231.9,1010.2,238.2z
				 M982.5,238.2c0,4.2,0.8,7.5,2.4,9.6s4,3.2,7.2,3.2c6.3,0,9.6-4.2,9.6-12.8c0-8.6-3.2-12.8-9.6-12.8c-3.2,0-5.6,1.1-7.3,3.2
				C983.3,230.8,982.5,234,982.5,238.2z"/>
		</g>
		<g>
			<path class="st2" d="M1048.9,257.2h-10.2l-16.4-28.6h-0.2c0.3,5,0.5,8.7,0.5,10.8v17.8h-7.2v-37.8h10.1l16.4,28.3h0.2
				c-0.3-4.9-0.4-8.4-0.4-10.4v-17.9h7.3v37.8H1048.9z"/>
			<path class="st2" d="M1080,246.7c0,3.4-1.2,6.2-3.7,8.1c-2.4,2-5.8,2.9-10.3,2.9c-4,0-7.6-0.8-10.7-2.3v-7.5
				c2.5,1.1,4.7,1.9,6.5,2.4c1.8,0.5,3.4,0.7,4.8,0.7c1.7,0,3.1-0.3,4-1c0.9-0.7,1.4-1.7,1.4-3c0-0.7-0.2-1.4-0.6-2
				c-0.4-0.6-1-1.1-1.8-1.7c-0.8-0.5-2.4-1.4-4.9-2.5c-2.3-1.1-4-2.1-5.2-3.1c-1.1-1-2.1-2.1-2.7-3.5c-0.7-1.3-1-2.9-1-4.6
				c0-3.3,1.1-5.9,3.4-7.9c2.3-1.9,5.4-2.8,9.4-2.8c2,0,3.8,0.2,5.6,0.7c1.8,0.5,3.6,1.1,5.6,2l-2.6,6.3c-2-0.8-3.7-1.4-5-1.7
				c-1.3-0.3-2.6-0.5-3.9-0.5c-1.5,0-2.7,0.4-3.5,1.1c-0.8,0.7-1.2,1.6-1.2,2.7c0,0.7,0.2,1.3,0.5,1.8c0.3,0.5,0.8,1,1.6,1.5
				c0.7,0.5,2.4,1.4,5,2.6c3.5,1.7,5.9,3.4,7.3,5C1079.3,242.1,1080,244.2,1080,246.7z"/>
		</g>
	</g>
	<g>
		<g>
			<g>
				<path class="st2" d="M631.3,238.4c0,6.3-1.8,11-5.3,14.3c-3.5,3.3-8.7,4.9-15.3,4.9H600v-37.8h11.8c6.1,0,11,1.6,14.4,4.9
					C629.6,228,631.3,232.6,631.3,238.4z M622.9,238.6c0-8.2-3.6-12.2-10.8-12.2h-4.2V251h3.4C619.1,251,622.9,246.9,622.9,238.6z"
					/>
			</g>
			<g>
				<path class="st2" d="M660.9,257.7l-2.7-9h-13.8l-2.7,9H633l13.3-38h9.8l13.4,38H660.9z M656.3,242c-2.5-8.2-3.9-12.8-4.2-13.8
					c-0.3-1.1-0.5-1.9-0.7-2.5c-0.6,2.2-2.2,7.7-4.9,16.3H656.3z"/>
			</g>
			<g>
				<path class="st2" d="M686.8,257.7h-8.1v-31.2h-10.3v-6.7H697v6.7h-10.3v31.2H686.8z"/>
			</g>
			<g>
				<path class="st2" d="M724,257.7l-2.7-9h-13.8l-2.7,9h-8.7l13.3-38h9.8l13.4,38H724z M719.3,242c-2.5-8.2-3.9-12.8-4.2-13.8
					c-0.3-1.1-0.5-1.9-0.7-2.5c-0.6,2.2-2.2,7.7-4.9,16.3H719.3z"/>
			</g>
		</g>
		<g>
			<g>
				<path class="st2" d="M684.9,65.2c-1.8,0-3.2-1.5-3.2-3.2s1.5-3.2,3.2-3.2c1.8,0,3.2,1.5,3.2,3.2S686.7,65.2,684.9,65.2z"/>
			</g>
			<g>
				<path class="st2" d="M661.6,87.6c-1.8,0-3.2-1.5-3.2-3.2c0-1.8,1.5-3.2,3.2-3.2c1.8,0,3.2,1.5,3.2,3.2
					C664.9,86.1,663.5,87.6,661.6,87.6z"/>
			</g>
			<g>
				<path class="st2" d="M630.4,77.2c-1.8,0-3.2-1.5-3.2-3.2c0-1.7,1.5-3.2,3.2-3.2c1.7,0,3.2,1.5,3.2,3.2
					C633.6,75.7,632.2,77.2,630.4,77.2z"/>
			</g>
			<g>
				<path class="st2" d="M620.4,120.9c-1.8,0-3.2-1.5-3.2-3.2c0-1.7,1.5-3.2,3.2-3.2c1.8,0,3.2,1.5,3.2,3.2
					C623.7,119.4,622.2,120.9,620.4,120.9z"/>
			</g>
			<g>
				<polygon class="st2" points="596.3,178.1 745.9,177.6 745.9,172.9 596.3,173.3 				"/>
			</g>
			<g>
				<polygon class="st2" points="595.9,47.3 596.3,177.6 601.2,177.6 600.7,47.3 				"/>
			</g>
			<g>
				<polygon class="st2" points="644.8,176.2 640.2,176.2 640.2,51.8 612,51.8 612,174.4 607.3,174.4 607.3,47.3 644.8,47.3 				"/>
			</g>
			<g>
				<polygon class="st2" points="689.2,175.3 684.4,175.3 684.4,110.3 656.3,110.3 656.3,175 651.7,175 651.7,105.7 689.2,105.7 
									"/>
			</g>
			<g>
				<polygon class="st2" points="733.5,176.2 729,176.2 729,20 700.6,20 700.6,175.6 696.1,175.6 696.1,15.4 733.5,15.4 				"/>
			</g>
			<g>
				<path class="st2" d="M710.4,110.7c-1.8,0-3.2-1.5-3.2-3.2c0-1.7,1.5-3.2,3.2-3.2c1.8,0,3.2,1.5,3.2,3.2
					C713.7,109.2,712.2,110.7,710.4,110.7z"/>
			</g>
			<g>
				<circle class="st2" cx="630.4" cy="73.9" r="1.1"/>
			</g>
			<g>
				<g>
					<polygon class="st2" points="599.8,128.2 596.8,125.5 656,62.7 718,93.1 753.8,10.9 757.3,12.6 719.9,98.5 656.9,67.6 					"/>
				</g>
				<g>
					<g>
						<polygon class="st2" points="761.7,17.2 760.4,1.4 747.4,10.5 						"/>
					</g>
				</g>
			</g>
			<g>
				<path class="st2" d="M716,39.2c-1.8,0-3.2-1.5-3.2-3.2s1.5-3.2,3.2-3.2c1.8,0,3.2,1.5,3.2,3.2S717.7,39.2,716,39.2z"/>
			</g>
		</g>
	</g>
</g>
</svg>
